<svg class="main-svg" xmlns="http://www.w3.org/2000/svg" xmlns:xlink="http://www.w3.org/1999/xlink" width="700" height="500" style="" viewBox="0 0 700 500"><rect x="0" y="0" width="700" height="500" style="fill: rgb(246, 246, 246); fill-opacity: 1;"/><defs id="defs-35edfb"><g class="clips"/><g class="gradients"/><g class="patterns"/></defs><g class="bglayer"/><g class="layer-below"><g class="imagelayer"/><g class="shapelayer"/></g><g class="cartesianlayer"/><g class="polarlayer"/><g class="smithlayer"/><g class="ternarylayer"/><g class="geolayer"/><g class="funnelarealayer"/><g class="pielayer"/><g class="iciclelayer"/><g class="treemaplayer"/><g class="sunburstlayer"/><g class="glimages"/><g class="sankey" transform="translate(80,100)matrix(1 0 0 1 0 0)" style="box-sizing: content-box; position: absolute; left: 0px; shape-rendering: geometricprecision; pointer-events: none;"><g class="sankey-links" style="fill: none;"><path class="sankey-link" d="M 35.054622196474384 288.3060928925612  L 30.054622196474384 288.3060928925612 A 10.100235594371139 10.100235594371139 0 0 0 19.95438660210324 298.40632848693235 L 19.95438660210324 303.40632848693224 A 10.100235594371139 10.100235594371139 0 0 0 30.054622196474384 313.5065640813034 L 65.05462219647438 313.5065640813034 A 10.100235594371139 10.100235594371139 0 0 0 75.15485779084551 303.40632848693224 L 75.15485779084551 298.40632848693235 A 10.100235594371139 10.100235594371139 0 0 0 65.05462219647438 288.3060928925612 L 60.054622196474384 288.3060928925612 L 60.054622196474384 288.40632848693235 L 65.05462219647438 288.40632848693235 A 10 10 0 0 1 75.05462219647438 298.40632848693235 L 75.05462219647438 303.40632848693224 A 10 10 0 0 1 65.05462219647438 313.40632848693224 L 30.054622196474384 313.40632848693224 A 10 10 0 0 1 20.054622196474384 303.40632848693224 L 20.054622196474384 298.40632848693235 A 10 10 0 0 1 30.054622196474384 288.40632848693235 L 35.054622196474384 288.40632848693235Z" style="stroke: rgb(255, 138, 101); stroke-opacity: 0.4; fill: rgb(255, 138, 101); fill-opacity: 0.4; stroke-width: 1; opacity: 1;"/><path class="sankey-link" d="M60.054622196474384,0C287.5273110982372,0 287.5273110982372,5.684341886080802e-14 515,5.684341886080802e-14L515,165.05613078560356C287.5273110982372,165.05613078560356 287.5273110982372,165.0561307856035 60.054622196474384,165.0561307856035Z" style="stroke: rgb(68, 68, 68); stroke-opacity: 1; fill: rgb(255, 138, 101); fill-opacity: 0.4; stroke-width: 0; opacity: 1;"/></g><g class="sankey-node-set" style="cursor: move;"><g class="sankey-node" transform="translate(35.055,288.306)" style="opacity: 1;"><rect class="node-rect" width="25" height="0.5" style="stroke-width: 0.5; stroke: rgb(128, 128, 128); stroke-opacity: 1; fill: rgb(57, 106, 177); fill-opacity: 0.8;"/><text class="node-label" data-notex="1" x="0" y="0" text-anchor="start" transform="translate(28.25,5.5)" style="cursor: default; font-family: 'Times New Romans'; font-size: 15px; fill: rgb(34, 34, 34); fill-opacity: 1; text-shadow: rgb(255, 255, 255) 1px 1px 1px, rgb(255, 255, 255) -1px -1px 1px, rgb(255, 255, 255) 1px -1px 1px, rgb(255, 255, 255) -1px 1px 1px; white-space: pre;"></text></g><g class="sankey-node" transform="translate(35.055,0.000)" style="opacity: 1;"><rect class="node-rect" width="25" height="165.05613078560359" style="stroke-width: 0.5; stroke: rgb(128, 128, 128); stroke-opacity: 1; fill: rgb(57, 106, 177); fill-opacity: 0.8;"/><text class="node-label" data-notex="1" x="0" y="0" text-anchor="start" transform="translate(28.25,87.77806539280179)" style="cursor: default; font-family: 'Times New Romans'; font-size: 15px; fill: rgb(34, 34, 34); fill-opacity: 1; text-shadow: rgb(255, 255, 255) 1px 1px 1px, rgb(255, 255, 255) -1px -1px 1px, rgb(255, 255, 255) 1px -1px 1px, rgb(255, 255, 255) -1px 1px 1px; white-space: pre;">Computer and Mathematical Occupations</text></g><g class="sankey-node" transform="translate(515.000,0.000)" style="opacity: 1;"><rect class="node-rect" width="25" height="165.05613078560344" style="stroke-width: 0.5; stroke: rgb(128, 128, 128); stroke-opacity: 1; fill: rgb(57, 106, 177); fill-opacity: 0.8;"/><text class="node-label" data-notex="1" x="0" y="0" text-anchor="end" transform="translate(-3.25,87.77806539280172)" style="cursor: default; font-family: 'Times New Romans'; font-size: 15px; fill: rgb(34, 34, 34); fill-opacity: 1; text-shadow: rgb(255, 255, 255) 1px 1px 1px, rgb(255, 255, 255) -1px -1px 1px, rgb(255, 255, 255) 1px -1px 1px, rgb(255, 255, 255) -1px 1px 1px; white-space: pre;">Mathematical Science Occupations</text></g></g></g><defs id="topdefs-35edfb"><g class="clips"/></defs><g class="layer-above"><g class="imagelayer"/><g class="shapelayer"/></g><g class="infolayer"><g class="g-gtitle"><text class="gtitle" x="35" y="50" text-anchor="start" dy="0em" style="opacity: 1; font-family: 'Times New Romans'; font-size: 21px; fill: rgb(34, 34, 34); fill-opacity: 1; white-space: pre;">Career Pathway Trends by SOC Classification</text></g><g class="first-render"/></g></svg>